<?xml version="1.0" encoding="utf-8"?>
<!-- Generator: Adobe Illustrator 23.0.3, SVG Export Plug-In . SVG Version: 6.00 Build 0)  -->
<svg version="1.1" id="Layer_1" xmlns="http://www.w3.org/2000/svg" xmlns:xlink="http://www.w3.org/1999/xlink" x="0px" y="0px"
	 viewBox="0 0 48.1 48.1" style="enable-background:new 0 0 48.1 48.1;" xml:space="preserve">
<style type="text/css">
	.st0{clip-path:url(#SVGID_2_);}
	.st1{clip-path:url(#SVGID_4_);}
	.st2{fill:#00AEE5;}
	.st3{fill:#FF6262;}
</style>
<g>
	<defs>
		<rect id="SVGID_1_" x="0" y="0" width="48.1" height="48.1"/>
	</defs>
	<clipPath id="SVGID_2_">
		<use xlink:href="#SVGID_1_"  style="overflow:visible;"/>
	</clipPath>
	<g transform="translate(98.684 176.837)" class="st0">
		<g>
			<defs>
				
					<rect id="SVGID_3_" x="-151.9" y="-231.9" transform="matrix(0.7071 -0.7071 0.7071 0.7071 44.868 7.6283)" width="367" height="363.2"/>
			</defs>
			<clipPath id="SVGID_4_">
				<use xlink:href="#SVGID_3_"  style="overflow:visible;"/>
			</clipPath>
			<g transform="translate(-98.684 82.692) rotate(-45)" class="st1">
				<g transform="translate(-993 1456)">
					
						<rect x="995.7" y="-1639.5" transform="matrix(-1 2.535182e-06 -2.535182e-06 -1 2203.4194 -3271.0293)" class="st2" width="212" height="8"/>
					
						<rect x="995.7" y="-1623.5" transform="matrix(-1 2.535182e-06 -2.535182e-06 -1 2203.4194 -3239.0293)" class="st3" width="212" height="8"/>
				</g>
				<g transform="translate(-781 1456)">
					
						<rect x="995.7" y="-1639.5" transform="matrix(-1 2.535182e-06 -2.535182e-06 -1 2203.4192 -3271.0293)" class="st2" width="212" height="8"/>
					
						<rect x="995.7" y="-1623.5" transform="matrix(-1 2.535182e-06 -2.535182e-06 -1 2203.4192 -3239.0293)" class="st3" width="212" height="8"/>
				</g>
				<g transform="translate(-993 1490)">
					
						<rect x="995.7" y="-1639.5" transform="matrix(-1 2.535182e-06 -2.535182e-06 -1 2203.4194 -3271.0293)" class="st2" width="212" height="8"/>
					
						<rect x="995.7" y="-1623.5" transform="matrix(-1 2.535182e-06 -2.535182e-06 -1 2203.4194 -3239.0293)" class="st3" width="212" height="8"/>
				</g>
				<g transform="translate(-781 1490)">
					
						<rect x="995.7" y="-1639.5" transform="matrix(-1 2.535182e-06 -2.535182e-06 -1 2203.4192 -3271.0293)" class="st2" width="212" height="8"/>
					
						<rect x="995.7" y="-1623.5" transform="matrix(-1 2.535182e-06 -2.535182e-06 -1 2203.4192 -3239.0293)" class="st3" width="212" height="8"/>
				</g>
				<g transform="translate(-993 1524)">
					
						<rect x="995.7" y="-1639.5" transform="matrix(-1 2.535182e-06 -2.535182e-06 -1 2203.4194 -3271.0293)" class="st2" width="212" height="8"/>
					
						<rect x="995.7" y="-1623.5" transform="matrix(-1 2.535182e-06 -2.535182e-06 -1 2203.4194 -3239.0293)" class="st3" width="212" height="8"/>
				</g>
				<g transform="translate(-781 1524)">
					
						<rect x="995.7" y="-1639.5" transform="matrix(-1 2.535182e-06 -2.535182e-06 -1 2203.4192 -3271.0293)" class="st2" width="212" height="8"/>
					
						<rect x="995.7" y="-1623.5" transform="matrix(-1 2.535182e-06 -2.535182e-06 -1 2203.4192 -3239.0293)" class="st3" width="212" height="8"/>
				</g>
				<g transform="translate(-993 1558)">
					
						<rect x="995.7" y="-1639.5" transform="matrix(-1 2.535182e-06 -2.535182e-06 -1 2203.4194 -3271.0293)" class="st2" width="212" height="8"/>
					
						<rect x="995.7" y="-1623.5" transform="matrix(-1 2.535182e-06 -2.535182e-06 -1 2203.4194 -3239.0293)" class="st3" width="212" height="8"/>
				</g>
				<g transform="translate(-781 1558)">
					
						<rect x="995.7" y="-1639.5" transform="matrix(-1 2.535182e-06 -2.535182e-06 -1 2203.4192 -3271.0293)" class="st2" width="212" height="8"/>
					
						<rect x="995.7" y="-1623.5" transform="matrix(-1 2.535182e-06 -2.535182e-06 -1 2203.4192 -3239.0293)" class="st3" width="212" height="8"/>
				</g>
				<g transform="translate(-993 1592)">
					
						<rect x="995.7" y="-1639.5" transform="matrix(-1 2.535182e-06 -2.535182e-06 -1 2203.4194 -3271.0293)" class="st2" width="212" height="8"/>
					
						<rect x="995.7" y="-1623.5" transform="matrix(-1 2.535182e-06 -2.535182e-06 -1 2203.4194 -3239.0293)" class="st3" width="212" height="8"/>
				</g>
				<g transform="translate(-781 1592)">
					
						<rect x="995.7" y="-1639.5" transform="matrix(-1 2.535182e-06 -2.535182e-06 -1 2203.4192 -3271.0293)" class="st2" width="212" height="8"/>
					
						<rect x="995.7" y="-1623.5" transform="matrix(-1 2.535182e-06 -2.535182e-06 -1 2203.4192 -3239.0293)" class="st3" width="212" height="8"/>
				</g>
				<g transform="translate(-993 1626)">
					
						<rect x="995.7" y="-1639.5" transform="matrix(-1 2.535182e-06 -2.535182e-06 -1 2203.4194 -3271.0293)" class="st2" width="212" height="8"/>
					
						<rect x="995.7" y="-1623.5" transform="matrix(-1 2.535182e-06 -2.535182e-06 -1 2203.4194 -3239.0293)" class="st3" width="212" height="8"/>
				</g>
				<g transform="translate(-781 1626)">
					
						<rect x="995.7" y="-1639.5" transform="matrix(-1 2.535182e-06 -2.535182e-06 -1 2203.4192 -3271.0293)" class="st2" width="212" height="8"/>
					
						<rect x="995.7" y="-1623.5" transform="matrix(-1 2.535182e-06 -2.535182e-06 -1 2203.4192 -3239.0293)" class="st3" width="212" height="8"/>
				</g>
				<g transform="translate(-993 1660)">
					
						<rect x="995.7" y="-1639.5" transform="matrix(-1 2.535182e-06 -2.535182e-06 -1 2203.4194 -3271.0293)" class="st2" width="212" height="8"/>
					
						<rect x="995.7" y="-1623.5" transform="matrix(-1 2.535182e-06 -2.535182e-06 -1 2203.4194 -3239.0293)" class="st3" width="212" height="8"/>
				</g>
				<g transform="translate(-781 1660)">
					
						<rect x="995.7" y="-1639.5" transform="matrix(-1 2.535182e-06 -2.535182e-06 -1 2203.4192 -3271.0293)" class="st2" width="212" height="8"/>
					
						<rect x="995.7" y="-1623.5" transform="matrix(-1 2.535182e-06 -2.535182e-06 -1 2203.4192 -3239.0293)" class="st3" width="212" height="8"/>
				</g>
				<g transform="translate(-993 1694)">
					
						<rect x="995.7" y="-1639.5" transform="matrix(-1 2.535182e-06 -2.535182e-06 -1 2203.4194 -3271.0293)" class="st2" width="212" height="8"/>
					
						<rect x="995.7" y="-1623.5" transform="matrix(-1 2.535182e-06 -2.535182e-06 -1 2203.4194 -3239.0293)" class="st3" width="212" height="8"/>
				</g>
				<g transform="translate(-781 1694)">
					
						<rect x="995.7" y="-1639.5" transform="matrix(-1 2.535182e-06 -2.535182e-06 -1 2203.4192 -3271.0293)" class="st2" width="212" height="8"/>
					
						<rect x="995.7" y="-1623.5" transform="matrix(-1 2.535182e-06 -2.535182e-06 -1 2203.4192 -3239.0293)" class="st3" width="212" height="8"/>
				</g>
				<g transform="translate(-993 1728)">
					
						<rect x="995.7" y="-1639.5" transform="matrix(-1 2.535182e-06 -2.535182e-06 -1 2203.4194 -3271.0293)" class="st2" width="212" height="8"/>
					
						<rect x="995.7" y="-1623.5" transform="matrix(-1 2.535182e-06 -2.535182e-06 -1 2203.4194 -3239.0293)" class="st3" width="212" height="8"/>
				</g>
				<g transform="translate(-781 1728)">
					
						<rect x="995.7" y="-1639.5" transform="matrix(-1 2.535182e-06 -2.535182e-06 -1 2203.4192 -3271.0293)" class="st2" width="212" height="8"/>
					
						<rect x="995.7" y="-1623.5" transform="matrix(-1 2.535182e-06 -2.535182e-06 -1 2203.4192 -3239.0293)" class="st3" width="212" height="8"/>
				</g>
				<g transform="translate(-993 1762)">
					
						<rect x="995.7" y="-1639.5" transform="matrix(-1 2.535182e-06 -2.535182e-06 -1 2203.4194 -3271.0293)" class="st2" width="212" height="8"/>
					
						<rect x="995.7" y="-1623.5" transform="matrix(-1 2.535182e-06 -2.535182e-06 -1 2203.4194 -3239.0293)" class="st3" width="212" height="8"/>
				</g>
				<g transform="translate(-781 1762)">
					
						<rect x="995.7" y="-1639.5" transform="matrix(-1 2.535182e-06 -2.535182e-06 -1 2203.4192 -3271.0293)" class="st2" width="212" height="8"/>
					
						<rect x="995.7" y="-1623.5" transform="matrix(-1 2.535182e-06 -2.535182e-06 -1 2203.4192 -3239.0293)" class="st3" width="212" height="8"/>
				</g>
				<g transform="translate(-993 1796)">
					
						<rect x="995.7" y="-1639.5" transform="matrix(-1 2.535182e-06 -2.535182e-06 -1 2203.4194 -3271.0293)" class="st2" width="212" height="8"/>
					
						<rect x="995.7" y="-1623.5" transform="matrix(-1 2.535182e-06 -2.535182e-06 -1 2203.4194 -3239.0293)" class="st3" width="212" height="8"/>
				</g>
				<g transform="translate(-781 1796)">
					
						<rect x="995.7" y="-1639.5" transform="matrix(-1 2.535182e-06 -2.535182e-06 -1 2203.4192 -3271.0293)" class="st2" width="212" height="8"/>
					
						<rect x="995.7" y="-1623.5" transform="matrix(-1 2.535182e-06 -2.535182e-06 -1 2203.4192 -3239.0293)" class="st3" width="212" height="8"/>
				</g>
			</g>
		</g>
	</g>
</g>
</svg>
