<svg xmlns="http://www.w3.org/2000/svg" xmlns:xlink="http://www.w3.org/1999/xlink" width="315.913" height="185.722" viewBox="0 0 315.913 185.722"><defs><style>.a{fill:#fff;stroke:#707070;}.b{fill:none;}.c{clip-path:url(#a);}.d{clip-path:url(#b);}.e{fill:#00aee5;}.f{fill:#ff6262;}</style><clipPath id="a"><rect class="a" width="315.913" height="185.722" transform="translate(0 0)"/></clipPath><clipPath id="b"><rect class="b" width="367.03" height="363.191"/></clipPath></defs><g class="c"><g class="d" transform="translate(-98.684 82.692) rotate(-45)"><g transform="translate(-993 1456)"><rect class="e" width="212" height="8" transform="translate(993 -1456)"/><rect class="f" width="212" height="8" transform="translate(993 -1440)"/></g><g transform="translate(-781 1456)"><rect class="e" width="212" height="8" transform="translate(993 -1456)"/><rect class="f" width="212" height="8" transform="translate(993 -1440)"/></g><g transform="translate(-993 1490)"><rect class="e" width="212" height="8" transform="translate(993 -1456)"/><rect class="f" width="212" height="8" transform="translate(993 -1440)"/></g><g transform="translate(-781 1490)"><rect class="e" width="212" height="8" transform="translate(993 -1456)"/><rect class="f" width="212" height="8" transform="translate(993 -1440)"/></g><g transform="translate(-993 1524)"><rect class="e" width="212" height="8" transform="translate(993 -1456)"/><rect class="f" width="212" height="8" transform="translate(993 -1440)"/></g><g transform="translate(-781 1524)"><rect class="e" width="212" height="8" transform="translate(993 -1456)"/><rect class="f" width="212" height="8" transform="translate(993 -1440)"/></g><g transform="translate(-993 1558)"><rect class="e" width="212" height="8" transform="translate(993 -1456)"/><rect class="f" width="212" height="8" transform="translate(993 -1440)"/></g><g transform="translate(-781 1558)"><rect class="e" width="212" height="8" transform="translate(993 -1456)"/><rect class="f" width="212" height="8" transform="translate(993 -1440)"/></g><g transform="translate(-993 1592)"><rect class="e" width="212" height="8" transform="translate(993 -1456)"/><rect class="f" width="212" height="8" transform="translate(993 -1440)"/></g><g transform="translate(-781 1592)"><rect class="e" width="212" height="8" transform="translate(993 -1456)"/><rect class="f" width="212" height="8" transform="translate(993 -1440)"/></g><g transform="translate(-993 1626)"><rect class="e" width="212" height="8" transform="translate(993 -1456)"/><rect class="f" width="212" height="8" transform="translate(993 -1440)"/></g><g transform="translate(-781 1626)"><rect class="e" width="212" height="8" transform="translate(993 -1456)"/><rect class="f" width="212" height="8" transform="translate(993 -1440)"/></g><g transform="translate(-993 1660)"><rect class="e" width="212" height="8" transform="translate(993 -1456)"/><rect class="f" width="212" height="8" transform="translate(993 -1440)"/></g><g transform="translate(-781 1660)"><rect class="e" width="212" height="8" transform="translate(993 -1456)"/><rect class="f" width="212" height="8" transform="translate(993 -1440)"/></g><g transform="translate(-993 1694)"><rect class="e" width="212" height="8" transform="translate(993 -1456)"/><rect class="f" width="212" height="8" transform="translate(993 -1440)"/></g><g transform="translate(-781 1694)"><rect class="e" width="212" height="8" transform="translate(993 -1456)"/><rect class="f" width="212" height="8" transform="translate(993 -1440)"/></g><g transform="translate(-993 1728)"><rect class="e" width="212" height="8" transform="translate(993 -1456)"/><rect class="f" width="212" height="8" transform="translate(993 -1440)"/></g><g transform="translate(-781 1728)"><rect class="e" width="212" height="8" transform="translate(993 -1456)"/><rect class="f" width="212" height="8" transform="translate(993 -1440)"/></g><g transform="translate(-993 1762)"><rect class="e" width="212" height="8" transform="translate(993 -1456)"/><rect class="f" width="212" height="8" transform="translate(993 -1440)"/></g><g transform="translate(-781 1762)"><rect class="e" width="212" height="8" transform="translate(993 -1456)"/><rect class="f" width="212" height="8" transform="translate(993 -1440)"/></g><g transform="translate(-993 1796)"><rect class="e" width="212" height="8" transform="translate(993 -1456)"/><rect class="f" width="212" height="8" transform="translate(993 -1440)"/></g><g transform="translate(-781 1796)"><rect class="e" width="212" height="8" transform="translate(993 -1456)"/><rect class="f" width="212" height="8" transform="translate(993 -1440)"/></g></g></g></svg>