<?xml version="1.0" encoding="utf-8"?>
<!-- Generator: Adobe Illustrator 23.0.3, SVG Export Plug-In . SVG Version: 6.00 Build 0)  -->
<svg version="1.1" id="Layer_1" xmlns="http://www.w3.org/2000/svg" xmlns:xlink="http://www.w3.org/1999/xlink" x="0px" y="0px"
	 viewBox="0 0 34 34" style="enable-background:new 0 0 34 34;" xml:space="preserve">
<style type="text/css">
	.st0{fill:#FFFFFF;}
</style>
<g>
	<path class="st0" d="M29.6,14.1L18.1,5.2c-0.4-0.3-0.9-0.3-1.2,0L5.4,14.1c-0.4,0.3-0.5,1-0.2,1.4c0.3,0.4,1,0.5,1.4,0.2l1-0.8
		v10.7c0,1.5,1.3,2.8,2.8,2.8h14.1c1.5,0,2.8-1.3,2.8-2.8V14.8l1,0.8c0.2,0.1,0.4,0.2,0.6,0.2c0.3,0,0.6-0.1,0.8-0.4
		C30.1,15,30,14.4,29.6,14.1z M25.3,25.5c0,0.4-0.4,0.8-0.8,0.8H10.5c-0.4,0-0.8-0.4-0.8-0.8V13.3l7.8-6l7.8,6V25.5z"/>
	<circle class="st0" cx="17.3" cy="20.7" r="2.4"/>
	<path class="st0" d="M13.3,16.7c-0.7,0-1.3,0.6-1.3,1.3s0.6,1.3,1.3,1.3c0.7,0,1.3-0.6,1.3-1.3C14.7,17.3,14.1,16.7,13.3,16.7z"/>
	<path class="st0" d="M15.6,17C15.6,17,15.6,17,15.6,17c0.7,0,1.3-0.6,1.3-1.3c0-0.7-0.6-1.3-1.3-1.3c-0.7,0-1.3,0.6-1.3,1.3
		C14.3,16.4,14.9,17,15.6,17z"/>
	<path class="st0" d="M19.1,17c0.7,0,1.3-0.6,1.3-1.3c0-0.7-0.6-1.3-1.3-1.3c-0.7,0-1.3,0.6-1.3,1.3c0,0,0,0,0,0
		C17.8,16.4,18.4,17,19.1,17z"/>
	<path class="st0" d="M20,18.1c0,0.7,0.6,1.3,1.3,1.3c0.7,0,1.3-0.6,1.3-1.3c0-0.7-0.6-1.3-1.3-1.3C20.6,16.7,20,17.3,20,18.1z"/>
</g>
</svg>
