<?xml version="1.0" encoding="utf-8"?>
<!-- Generator: Adobe Illustrator 23.0.3, SVG Export Plug-In . SVG Version: 6.00 Build 0)  -->
<svg version="1.1" id="Layer_1" xmlns="http://www.w3.org/2000/svg" xmlns:xlink="http://www.w3.org/1999/xlink" x="0px" y="0px"
	 viewBox="0 0 34 34" style="enable-background:new 0 0 34 34;" xml:space="preserve">
<style type="text/css">
	.st0{fill:#FFFFFF;}
</style>
<g>
	<path class="st0" d="M23.7,16.5c-0.3-0.7-0.6-1.3-1-1.8c-0.4-0.6-0.7-1.2-0.8-1.7c-0.2-0.8-0.4-1.5-0.5-2.3s-0.8-1.4-1.6-1.4h-0.4
		V6.4h0.9l1.2,1.2c0.2,0.2,0.5,0.3,0.7,0.3s0.5-0.1,0.7-0.3c0.4-0.4,0.4-1,0-1.4l-1.5-1.5c-0.2-0.2-0.4-0.3-0.7-0.3H14
		c-0.6,0-1,0.4-1,1s0.4,1,1,1h0.4v2.9h-0.3c-0.8,0-1.5,0.6-1.6,1.4c-0.1,0.8-0.3,1.6-0.5,2.3c-0.1,0.5-0.5,1.1-0.9,1.7
		c-0.3,0.5-0.7,1.1-1,1.8c-0.3,0.7-0.4,1.4-0.4,2.1v7.8c0,2,1.6,3.6,3.6,3.6h6.9c2,0,3.6-1.6,3.6-3.6v-7.8
		C24.2,17.9,24,17.2,23.7,16.5L23.7,16.5z M19.7,12.3h-5.2c0.1-0.3,0.1-0.6,0.2-0.9h4.9C19.6,11.6,19.6,11.9,19.7,12.3z M16.5,6.4
		h0.9v2.9h-0.9V6.4z M22.1,26.4c0,0.9-0.7,1.6-1.6,1.6h-6.9c-0.9,0-1.6-0.7-1.6-1.6v-7.8c0-0.5,0.1-0.9,0.3-1.3
		c0.2-0.5,0.5-1,0.8-1.5s0.6-1,0.8-1.5h6.4c0.2,0.5,0.5,1,0.8,1.5s0.6,1,0.8,1.5c0.2,0.4,0.3,0.9,0.3,1.4L22.1,26.4L22.1,26.4z"/>
	<path class="st0" d="M4.5,19C2.6,19,1,20.6,1,22.5S2.6,26,4.5,26S8,24.4,8,22.5S6.4,19,4.5,19z M4.5,24C3.7,24,3,23.3,3,22.5
		S3.7,21,4.5,21S6,21.7,6,22.5S5.3,24,4.5,24z"/>
	<path class="st0" d="M27,10.5c-1.4,0-2.5,1.1-2.5,2.5s1.1,2.5,2.5,2.5s2.5-1.1,2.5-2.5S28.4,10.5,27,10.5z M27,14.5
		c-0.8,0-1.5-0.7-1.5-1.5s0.7-1.5,1.5-1.5s1.5,0.7,1.5,1.5S27.8,14.5,27,14.5z"/>
	<path class="st0" d="M11,6.5C11,5.7,10.3,5,9.5,5S8,5.7,8,6.5S8.7,8,9.5,8S11,7.3,11,6.5z M9.5,7C9.2,7,9,6.8,9,6.5S9.2,6,9.5,6
		S10,6.2,10,6.5S9.8,7,9.5,7z"/>
</g>
</svg>
