<?xml version="1.0" encoding="utf-8"?>
<!-- Generator: Adobe Illustrator 23.0.3, SVG Export Plug-In . SVG Version: 6.00 Build 0)  -->
<svg version="1.1" id="Layer_1" xmlns="http://www.w3.org/2000/svg" xmlns:xlink="http://www.w3.org/1999/xlink" x="0px" y="0px"
	 viewBox="0 0 34 34" style="enable-background:new 0 0 34 34;" xml:space="preserve">
<style type="text/css">
	.st0{fill:#FFFFFF;}
</style>
<path class="st0" d="M31.1,9.6C30.9,9.3,30.5,9,30.1,9c0,0,0,0,0,0c-2,0-4.1,0.4-6.1,1.1c-1.8,0.8-3.4,1.8-4.9,3h-3.6
	c-1.5-1.2-3.2-2.2-5-3c-1.9-0.7-4-1-6-1.1C4,9,3.7,9.3,3.5,9.6c-1,2.7-1.5,5.6-1.5,8.5c0,2.5,0.5,4.9,1.5,7.1
	c0.2,0.4,0.5,0.6,0.9,0.6c0,0,0,0,0,0c2,0,4.1-0.4,6.1-1.1c1.8-0.8,3.4-1.8,4.9-3h3.1c0,0,0,0,0.1,0h0.5c1.5,1.2,3.2,2.2,5,3
	c1.9,0.7,3.9,1,6,1.1c0.4,0,0.8-0.2,0.9-0.6c1-2.2,1.5-4.6,1.5-7.1C32.6,15.2,32.1,12.4,31.1,9.6z M16.1,15.1h2.1v4.6h-2.1V15.1z
	 M9.8,22.9c-1.5,0.5-3.1,0.8-4.7,0.9C4.4,22,4,20.1,4,18.1c0-2.4,0.4-4.8,1.1-7.1c1.6,0.1,3.1,0.4,4.6,0.9c1.6,0.7,3,1.6,4.4,2.7
	v1.6h-2.3c-0.6,0-1,0.4-1,1s0.4,1,1,1h2.3v2C12.8,21.3,11.3,22.2,9.8,22.9z M29.5,23.8c-1.6-0.1-3.2-0.4-4.6-0.9
	c-1.7-0.7-3.3-1.7-4.7-2.9v-1.8h2.3c0.6,0,1-0.4,1-1s-0.4-1-1-1h-2.3v-1.4c1.4-1.2,3-2.2,4.6-2.9c1.5-0.5,3.1-0.8,4.7-0.9
	c0.8,2.3,1.2,4.7,1.1,7.1C30.6,20.1,30.2,22,29.5,23.8z"/>
</svg>
