<?xml version="1.0" encoding="utf-8"?>
<!-- Generator: Adobe Illustrator 23.0.3, SVG Export Plug-In . SVG Version: 6.00 Build 0)  -->
<svg version="1.1" id="Layer_1" xmlns="http://www.w3.org/2000/svg" xmlns:xlink="http://www.w3.org/1999/xlink" x="0px" y="0px"
	 viewBox="0 0 34 34" style="enable-background:new 0 0 34 34;" xml:space="preserve">
<style type="text/css">
	.st0{fill:#FFFFFF;}
</style>
<path class="st0" d="M23.3,18.8c-0.2-0.2-0.4-0.3-0.6-0.4V6.3c0-1.8-1.5-3.3-3.3-3.3h-5.6c-0.9,0-1.7,0.3-2.4,1
	c-0.6,0.6-1,1.5-1,2.4v12.1C9.6,18.9,9,19.9,9,20.9c0,1.6,1.3,3,3,3h1.7v1.7l-1.8,2.8c-0.2,0.2-0.2,0.5-0.1,0.8
	c0.1,0.3,0.3,0.5,0.5,0.6l1.3,0.6c0.1,0.1,0.3,0.1,0.4,0.1c0.2,0,0.4-0.1,0.6-0.2l4.2-3.1c0.3-0.2,0.4-0.5,0.4-0.8v-2.5h2
	c0,0,0,0,0,0c1.6,0,3-1.3,3-3C24.2,20.2,23.9,19.4,23.3,18.8z M12.8,5.4C13.1,5.1,13.4,5,13.8,5h5.6c0.7,0,1.3,0.6,1.3,1.3V18h-8.3
	v-1.7H15c0.6,0,1-0.4,1-1s-0.4-1-1-1h-2.5v-1.7H15c0.6,0,1-0.4,1-1s-0.4-1-1-1h-2.5V8.8H15c0.6,0,1-0.4,1-1s-0.4-1-1-1h-2.5V6.3
	C12.4,6,12.6,5.6,12.8,5.4z M17.2,25.9l-2.6,1.9l0.9-1.4c0.1-0.2,0.2-0.4,0.2-0.6v-2h1.5V25.9z M21.2,21.9H12c-0.5,0-1-0.4-1-1
	c0-0.5,0.4-1,1-1h9.2c0.3,0,0.5,0.1,0.7,0.3c0.2,0.2,0.3,0.4,0.3,0.7C22.2,21.5,21.7,21.9,21.2,21.9z"/>
</svg>
