<?xml version="1.0" encoding="utf-8"?>
<!-- Generator: Adobe Illustrator 23.0.3, SVG Export Plug-In . SVG Version: 6.00 Build 0)  -->
<svg version="1.1" id="Layer_1" xmlns="http://www.w3.org/2000/svg" xmlns:xlink="http://www.w3.org/1999/xlink" x="0px" y="0px"
	 viewBox="0 0 34 34" style="enable-background:new 0 0 34 34;" xml:space="preserve">
<style type="text/css">
	.st0{fill:#FFFFFF;}
</style>
<g>
	<path class="st0" d="M27.5,16.5c-0.1-0.5-0.5-0.9-1-0.9h-1.1c-0.4-1.6-1.8-2.9-3.6-2.9c0,0,0,0-0.1,0c-0.7-2.1-2.6-3.6-4.9-3.6
		c-1.9,0-3.6,1.1-4.4,2.7c-0.1,0-0.2,0-0.4,0c-2.2,0.1-3.9,1.8-4.1,3.9H7c-0.5,0-0.9,0.4-1,0.9l-1,8c0,0.3,0.1,0.6,0.2,0.8
		s0.5,0.3,0.8,0.3h21.6c0.3,0,0.6-0.1,0.8-0.3s0.3-0.5,0.2-0.8L27.5,16.5z M12.1,13.7c0.2,0,0.4,0,0.6,0.1c0.5,0.2,1.1-0.1,1.3-0.6
		c0.4-1.3,1.6-2.1,2.9-2.2c1.6,0.1,3,1.3,3.2,2.9c0,0.3,0.2,0.6,0.5,0.7c0.3,0.2,0.6,0.2,0.9,0.1c0.2-0.1,0.3-0.1,0.5-0.1
		c0.7,0,1.2,0.4,1.5,0.9H9.9C10.1,14.5,11,13.7,12.1,13.7z M7.1,23.6l0.8-6h17.7l0.8,6H7.1z"/>
	<path class="st0" d="M16.6,20.5c-0.7,0-1.2,0.5-1.2,1.2c0,0.7,0.5,1.2,1.2,1.2c0.7,0,1.2-0.5,1.2-1.2C17.8,21,17.3,20.5,16.6,20.5z
		"/>
	<path class="st0" d="M14.7,19.7c-0.4,0-0.7,0.3-0.7,0.7c0,0.4,0.3,0.7,0.7,0.7s0.7-0.3,0.7-0.7C15.3,20,15,19.7,14.7,19.7z"/>
	<path class="st0" d="M16.4,19.2c0-0.4-0.3-0.7-0.7-0.7c-0.4,0-0.7,0.3-0.7,0.7s0.3,0.7,0.7,0.7C16.1,19.8,16.4,19.5,16.4,19.2z"/>
	<path class="st0" d="M17.5,19.8c0.4,0,0.7-0.3,0.7-0.7c0-0.4-0.3-0.7-0.7-0.7s-0.7,0.3-0.7,0.7S17.2,19.8,17.5,19.8z"/>
	<path class="st0" d="M18.6,19.7c-0.4,0-0.7,0.3-0.7,0.7c0,0.4,0.3,0.7,0.7,0.7s0.7-0.3,0.7-0.7C19.3,20,19,19.7,18.6,19.7z"/>
</g>
</svg>
