<?xml version="1.0" encoding="utf-8"?>
<!-- Generator: Adobe Illustrator 23.0.3, SVG Export Plug-In . SVG Version: 6.00 Build 0)  -->
<svg version="1.1" id="Layer_1" xmlns="http://www.w3.org/2000/svg" xmlns:xlink="http://www.w3.org/1999/xlink" x="0px" y="0px"
	 viewBox="0 0 34 34" style="enable-background:new 0 0 34 34;" xml:space="preserve">
<style type="text/css">
	.st0{fill:#FFFFFF;}
</style>
<g>
	<path class="st0" d="M23,15.9v-5c0-1.5-1.2-2.8-2.8-2.8s-2.8,1.2-2.8,2.8v2.9c-0.2,0-0.5,0-0.7,0v-2.9c0-1.5-1.2-2.8-2.8-2.8
		s-2.8,1.2-2.8,2.8v5c-2.4,1.8-4,4.7-4.2,7.8c0,4.7,4.5,8.5,10.1,8.5c0,0,0,0,0,0c1.2,0,2.5-0.2,3.6-0.6c3.9-1.3,6.4-4.4,6.4-8
		C26.9,20.6,25.4,17.8,23,15.9z M20.1,29.8c-1,0.3-2,0.5-3,0.5c-4.4,0-8.1-2.9-8.1-6.5c0.2-2.6,1.5-5.1,3.7-6.6
		c0.3-0.2,0.4-0.5,0.4-0.8v-5.6c0-0.4,0.3-0.8,0.8-0.8c0.4,0,0.8,0.3,0.8,0.8v4.1c0,0.3,0.1,0.6,0.4,0.8c0.2,0.2,0.5,0.3,0.8,0.2
		c0.8-0.1,1.6-0.1,2.4,0c0.3,0.1,0.6,0,0.8-0.2s0.4-0.5,0.4-0.8v-4.1c0-0.4,0.3-0.8,0.8-0.8s0.8,0.3,0.8,0.8v5.6
		c0,0.3,0.2,0.6,0.4,0.8c2.2,1.5,3.6,3.9,3.7,6.5C25.1,26.4,23.2,28.8,20.1,29.8z"/>
	<path class="st0" d="M17.1,7.1c1.1,0,6.4-0.1,6.4-2.5c0-2.4-5.3-2.5-6.4-2.5c-1.1,0-6.4,0.1-6.4,2.5C10.7,6.9,16,7.1,17.1,7.1z
		 M17.1,4C19,4,20.3,4.3,21,4.5c-0.7,0.3-2.1,0.5-3.9,0.5c-1.8,0-3.2-0.3-3.9-0.5C13.9,4.3,15.2,4,17.1,4z"/>
	<path class="st0" d="M14.8,20.6c0-0.4-0.3-0.8-0.8-0.8h0c-0.4,0-0.7,0.3-0.7,0.8s0.3,0.8,0.8,0.8S14.8,21,14.8,20.6z"/>
	<path class="st0" d="M20.2,19.8L20.2,19.8c-0.4,0-0.8,0.3-0.8,0.8s0.3,0.8,0.8,0.8S21,21,21,20.6S20.6,19.8,20.2,19.8z"/>
	<path class="st0" d="M19.7,24.4c-0.3,0-0.5,0.2-0.5,0.5c-0.1,0.8-0.7,1.5-1.5,1.7v-2.2l0.9-1c0.1-0.1,0.2-0.4,0.1-0.5
		c-0.1-0.2-0.3-0.3-0.5-0.3H16c-0.2,0-0.4,0.1-0.5,0.3s0,0.4,0.1,0.5l0.9,0.9v2.2c-0.8-0.2-1.5-0.8-1.5-1.7c0-0.3-0.2-0.5-0.5-0.5
		c-0.3,0-0.5,0.3-0.5,0.5c0.1,1.5,1.4,2.7,2.8,2.7c0.1,0,0.1,0,0.2,0c1.6,0.1,2.9-1.1,3-2.7C20.2,24.6,19.9,24.4,19.7,24.4z"/>
</g>
</svg>
