<?xml version="1.0" encoding="utf-8"?>
<!-- Generator: Adobe Illustrator 23.0.3, SVG Export Plug-In . SVG Version: 6.00 Build 0)  -->
<svg version="1.1" id="Layer_1" xmlns="http://www.w3.org/2000/svg" xmlns:xlink="http://www.w3.org/1999/xlink" x="0px" y="0px"
	 viewBox="0 0 34 34" style="enable-background:new 0 0 34 34;" xml:space="preserve">
<style type="text/css">
	.st0{fill:#FFFFFF;}
</style>
<path class="st0" d="M25.1,15c1-2.1,0.6-4.7-1.1-6.4c-2.2-2.2-5.8-2.2-8,0l-9.3,9.3c-2.2,2.2-2.2,5.8,0,8c1.1,1.1,2.6,1.6,4,1.6
	s2.9-0.5,4-1.6c0.4-0.4,0.4-1,0-1.4c-0.4-0.4-1-0.4-1.4,0c-1.4,1.4-3.8,1.4-5.2,0c-1.4-1.4-1.4-3.8,0-5.2l4.5-4.5l3.8,3.8
	c-0.3,0.7-0.5,1.5-0.5,2.4c0,3.6,2.9,6.6,6.6,6.6c3.6,0,6.6-2.9,6.6-6.6C29,18.3,27.4,16,25.1,15z M14,13.4l3.4-3.4
	c1.4-1.4,3.8-1.4,5.2,0c1.2,1.2,1.4,3,0.6,4.4c-0.2,0-0.4,0-0.6,0c-2,0-3.8,0.9-5.1,2.4L14,13.4z M17.9,21c0-2.2,1.5-4,3.6-4.4v8.9
	C19.4,25,17.9,23.2,17.9,21z M23.4,25.5v-8.9c2,0.5,3.6,2.3,3.6,4.4S25.5,25,23.4,25.5z"/>
</svg>
