<?xml version="1.0" encoding="utf-8"?>
<!-- Generator: Adobe Illustrator 23.0.3, SVG Export Plug-In . SVG Version: 6.00 Build 0)  -->
<svg version="1.1" id="Layer_1" xmlns="http://www.w3.org/2000/svg" xmlns:xlink="http://www.w3.org/1999/xlink" x="0px" y="0px"
	 viewBox="0 0 34 34" style="enable-background:new 0 0 34 34;" xml:space="preserve">
<style type="text/css">
	.st0{fill:#FFFFFF;}
</style>
<g>
	<path class="st0" d="M13.8,17.6c-0.9,0.5-1.5,1.3-1.7,2.2c-0.3,0.9-0.1,1.9,0.4,2.8c0.7,1.2,1.9,1.8,3.2,1.8c0.6,0,1.3-0.2,1.8-0.5
		c0.9-0.5,1.5-1.3,1.7-2.2s0.1-1.9-0.4-2.8C17.8,17.2,15.6,16.6,13.8,17.6z M17.3,21.3c-0.1,0.4-0.4,0.8-0.8,1
		c-0.8,0.5-1.8,0.2-2.3-0.6c-0.2-0.4-0.3-0.8-0.2-1.3c0.1-0.4,0.4-0.8,0.8-1c0.3-0.2,0.6-0.2,0.8-0.2c0.6,0,1.1,0.3,1.5,0.8
		C17.3,20.4,17.4,20.8,17.3,21.3z"/>
	<path class="st0" d="M27.1,9.3l-1.3-2.2c-0.1-0.2-0.4-0.4-0.6-0.5c-0.3-0.1-0.5,0-0.8,0.1c-5.3,3.1-6.9,4-10.5,6L12,14
		C8.2,16,6.7,20.6,8.6,24.5c1.4,2.8,4.2,4.5,7.2,4.5c1.2,0,2.4-0.3,3.5-0.8c4-1.9,5.6-6.7,3.6-10.7c-0.4-0.8-0.9-1.5-1.6-2.2
		c-0.4-0.4-1-0.4-1.4,0c-0.4,0.4-0.4,1,0,1.4c0.5,0.5,0.9,1,1.2,1.6c1.5,3,0.2,6.6-2.7,8c-3,1.5-6.6,0.2-8-2.7
		c-1.4-2.9-0.3-6.4,2.5-7.9l2.1-1.2c0.7-0.4,1.4-0.8,2-1.2l0.6,1c0.2,0.3,0.5,0.5,0.9,0.5c0.2,0,0.3,0,0.5-0.1
		c0.5-0.3,0.6-0.9,0.4-1.4l-0.6-1c1.6-0.9,3.2-1.9,5.9-3.4l0.5,0.8L22.4,14c-0.3,0.5-0.2,1.1,0.3,1.4c0.5,0.3,1.1,0.2,1.4-0.3
		l3.1-4.7C27.3,10.1,27.3,9.7,27.1,9.3z"/>
	<path class="st0" d="M14.8,8.9c0.2,0.3,0.5,0.5,0.9,0.5c0.2,0,0.3,0,0.5-0.1c0.5-0.3,0.6-0.9,0.4-1.4l-1.3-2.2
		c-0.3-0.5-0.9-0.6-1.4-0.4c-0.5,0.3-0.6,0.9-0.4,1.4L14.8,8.9z"/>
	<path class="st0" d="M12,11.1l1.7,0.6c0.1,0,0.2,0.1,0.3,0.1c0.4,0,0.8-0.3,1-0.7c0.2-0.5-0.1-1.1-0.6-1.3l-1.7-0.6
		c-0.5-0.2-1.1,0.1-1.3,0.6C11.2,10.3,11.5,10.9,12,11.1z"/>
	<path class="st0" d="M18.2,9.2c0.1,0,0.1,0,0.2,0c0.5,0,0.9-0.3,1-0.8l0.4-1.8C19.9,6,19.6,5.5,19,5.4c-0.5-0.1-1.1,0.2-1.2,0.8
		L17.5,8C17.3,8.5,17.7,9,18.2,9.2z"/>
</g>
</svg>
