<?xml version="1.0" encoding="utf-8"?>
<!-- Generator: Adobe Illustrator 23.0.3, SVG Export Plug-In . SVG Version: 6.00 Build 0)  -->
<svg version="1.1" id="Layer_1" xmlns="http://www.w3.org/2000/svg" xmlns:xlink="http://www.w3.org/1999/xlink" x="0px" y="0px"
	 viewBox="0 0 34 34" style="enable-background:new 0 0 34 34;" xml:space="preserve">
<style type="text/css">
	.st0{fill:#FFFFFF;}
</style>
<path class="st0" d="M25.2,8.8C23,6.6,20.1,5.4,17,5.4c-3.1,0-6,1.2-8.2,3.4c-1.9,1.9-3,4.4-3.3,6.9c0,0,0,0,0,0
	c-0.4,3.4,0.7,6.9,3.3,9.5c2.3,2.3,5.2,3.4,8.2,3.4c3,0,5.9-1.1,8.2-3.4c2.2-2.2,3.4-5.1,3.4-8.2S27.4,11,25.2,8.8z M10.2,10.2
	c1.4-1.4,3.1-2.3,4.9-2.6c0.4,1.2,0.5,2.6,0,3.9c-0.5,1.5-1.6,2.7-3,3.4c-1.4,0.7-3.1,0.8-4.6,0.3C7.9,13.3,8.8,11.6,10.2,10.2z
	 M7.4,17.2c0.7,0.2,1.4,0.3,2.1,0.3c1.2,0,2.4-0.3,3.5-0.8c3.5-1.7,5.1-5.6,4.1-9.3c2.5,0,4.8,1,6.6,2.8c1.8,1.8,2.8,4.1,2.8,6.6
	c-1.9-0.5-3.9-0.4-5.7,0.5c-3.5,1.7-5.1,5.6-4.1,9.2c-2.4,0-4.8-1-6.6-2.8C8.4,21.9,7.4,19.6,7.4,17.2z M23.8,23.8
	c-1.4,1.4-3.1,2.3-4.9,2.6c-1-2.8,0.3-5.9,3-7.3c1.4-0.7,3.1-0.8,4.6-0.3C26,20.7,25.1,22.4,23.8,23.8z"/>
</svg>
