<?xml version="1.0" encoding="utf-8"?>
<!-- Generator: Adobe Illustrator 23.0.3, SVG Export Plug-In . SVG Version: 6.00 Build 0)  -->
<svg version="1.1" id="Layer_1" xmlns="http://www.w3.org/2000/svg" xmlns:xlink="http://www.w3.org/1999/xlink" x="0px" y="0px"
	 viewBox="0 0 34 34" style="enable-background:new 0 0 34 34;" xml:space="preserve">
<style type="text/css">
	.st0{fill:#FFFFFF;}
</style>
<g>
	<path class="st0" d="M29.1,16.2c0-2-1.6-3.6-3.6-3.6s-3.6,1.6-3.6,3.6c0,1.6,1.1,3,2.6,3.4v6.8c0,0.3-0.3,0.6-0.6,0.6h-9.2
		c-0.3,0-0.6-0.3-0.6-0.6v-5.6c0.7-0.2,1.3-0.7,1.7-1.3l5-8.7c0.3-0.4,0.4-0.9,0.4-1.4c0-1.6-1.3-2.9-2.9-2.9h-0.6V6.1
		c0-0.6-0.4-1-1-1s-1,0.4-1,1v3.1c0,0.6,0.4,1,1,1s1-0.4,1-1V8.6h0.6c0.5,0,0.9,0.4,0.9,0.9c0,0.2,0,0.3-0.1,0.4l-3.4,6h-5l-3.4-6
		C7,9.7,7,9.6,7,9.4C7,9,7.4,8.6,7.9,8.6h0.6v0.6c0,0.6,0.4,1,1,1s1-0.4,1-1V6c0-0.6-0.4-1-1-1s-1,0.4-1,1v0.6H7.9
		C6.3,6.6,5,7.9,5,9.4c0,0.5,0.1,1,0.4,1.4l5,8.7c0.4,0.6,1,1.1,1.7,1.3v5.6c0,1.4,1.2,2.6,2.6,2.6h9.2c1.4,0,2.6-1.2,2.6-2.6v-6.8
		C28,19.2,29.1,17.8,29.1,16.2z M14.4,17.8L14,18.5c-0.2,0.3-0.4,0.4-0.7,0.4c0,0,0,0,0,0h-0.2h-0.2c-0.3,0-0.6-0.2-0.7-0.4
		l-0.4-0.7H14.4z M25.5,17.8c-0.9,0-1.6-0.7-1.6-1.6s0.7-1.6,1.6-1.6s1.6,0.7,1.6,1.6S26.3,17.8,25.5,17.8z"/>
	<path class="st0" d="M25.5,15.3c-0.5,0-0.9,0.4-0.9,0.9c0,0.5,0.4,0.9,0.9,0.9s0.9-0.4,0.9-0.9C26.4,15.7,26,15.3,25.5,15.3z"/>
</g>
</svg>
