<?xml version="1.0" encoding="utf-8"?>
<!-- Generator: Adobe Illustrator 23.0.3, SVG Export Plug-In . SVG Version: 6.00 Build 0)  -->
<svg version="1.1" id="Layer_1" xmlns="http://www.w3.org/2000/svg" xmlns:xlink="http://www.w3.org/1999/xlink" x="0px" y="0px"
	 viewBox="0 0 34 34" style="enable-background:new 0 0 34 34;" xml:space="preserve">
<style type="text/css">
	.st0{fill:#FFFFFF;}
</style>
<g>
	<path class="st0" d="M26.7,9.7c0.4-0.4,0.4-1,0-1.4s-1-0.4-1.4,0L18,15.6L15.4,13c0.4-0.6,0.6-1.3,0.6-2c0-2.2-1.8-4-4-4
		s-4,1.8-4,4s1.8,4,4,4c0.7,0,1.4-0.2,2-0.6l2.6,2.6L14,19.6c-0.6-0.4-1.3-0.6-2-0.6c-2.2,0-4,1.8-4,4s1.8,4,4,4s4-1.8,4-4
		c0-0.7-0.2-1.4-0.6-2L26.7,9.7z M10,11c0-1.1,0.9-2,2-2s2,0.9,2,2c0,0.6-0.2,1-0.6,1.4c0,0,0,0,0,0s0,0,0,0C13,12.8,12.6,13,12,13
		C10.9,13,10,12.1,10,11z M12,25c-1.1,0-2-0.9-2-2s0.9-2,2-2c0.6,0,1,0.2,1.4,0.6c0,0,0,0,0,0s0,0,0,0C13.8,22,14,22.4,14,23
		C14,24.1,13.1,25,12,25z"/>
	<path class="st0" d="M21.2,18.8c-0.4-0.4-1-0.4-1.4,0c-0.4,0.4-0.4,1,0,1.4l5.5,5.5c0.2,0.2,0.5,0.3,0.7,0.3s0.5-0.1,0.7-0.3
		c0.4-0.4,0.4-1,0-1.4L21.2,18.8z"/>
</g>
</svg>
