<?xml version="1.0" encoding="utf-8"?>
<!-- Generator: Adobe Illustrator 23.0.3, SVG Export Plug-In . SVG Version: 6.00 Build 0)  -->
<svg version="1.1" id="Layer_1" xmlns="http://www.w3.org/2000/svg" xmlns:xlink="http://www.w3.org/1999/xlink" x="0px" y="0px"
	 viewBox="0 0 34 34" style="enable-background:new 0 0 34 34;" xml:space="preserve">
<style type="text/css">
	.st0{fill:#FFFFFF;}
</style>
<g>
	<path class="st0" d="M26,10h-3.5l-1.7-2.6C20.6,7.2,20.3,7,20,7h-6c-0.3,0-0.6,0.2-0.8,0.4L11.5,10H8c-1.7,0-3,1.3-3,3v11
		c0,1.7,1.3,3,3,3h18c1.7,0,3-1.3,3-3V13C29,11.3,27.7,10,26,10z M27,24c0,0.6-0.4,1-1,1H8c-0.6,0-1-0.4-1-1V13c0-0.6,0.4-1,1-1h4
		c0.3,0,0.6-0.2,0.8-0.4L14.5,9h4.9l1.7,2.6c0.2,0.3,0.5,0.4,0.8,0.4h4c0.6,0,1,0.4,1,1V24z"/>
	<path class="st0" d="M17,13c-2.8,0-5,2.2-5,5s2.2,5,5,5s5-2.2,5-5S19.8,13,17,13z M17,21c-1.7,0-3-1.3-3-3s1.3-3,3-3s3,1.3,3,3
		S18.7,21,17,21z"/>
</g>
</svg>
