<?xml version="1.0" encoding="utf-8"?>
<!-- Generator: Adobe Illustrator 23.0.3, SVG Export Plug-In . SVG Version: 6.00 Build 0)  -->
<svg version="1.1" id="Layer_1" xmlns="http://www.w3.org/2000/svg" xmlns:xlink="http://www.w3.org/1999/xlink" x="0px" y="0px"
	 viewBox="0 0 34 34" style="enable-background:new 0 0 34 34;" xml:space="preserve">
<style type="text/css">
	.st0{fill:#FFFFFF;}
</style>
<path class="st0" d="M17,23c-3.3,0-6-2.7-6-6s2.7-6,6-6s6,2.7,6,6S20.3,23,17,23z M17,13c-2.2,0-4,1.8-4,4c0,2.2,1.8,4,4,4
	c2.2,0,4-1.8,4-4C21,14.8,19.2,13,17,13z"/>
<path class="st0" d="M17,9c-0.6,0-1-0.4-1-1V6c0-0.6,0.4-1,1-1s1,0.4,1,1v2C18,8.6,17.6,9,17,9z"/>
<path class="st0" d="M17,29c-0.6,0-1-0.4-1-1v-2c0-0.6,0.4-1,1-1s1,0.4,1,1v2C18,28.6,17.6,29,17,29z"/>
<path class="st0" d="M10.6,11.6c-0.3,0-0.5-0.1-0.7-0.3L8.5,9.9c-0.4-0.4-0.4-1,0-1.4s1-0.4,1.4,0l1.4,1.4c0.4,0.4,0.4,1,0,1.4
	C11.2,11.5,10.9,11.6,10.6,11.6z"/>
<path class="st0" d="M24.8,25.8c-0.3,0-0.5-0.1-0.7-0.3l-1.4-1.4c-0.4-0.4-0.4-1,0-1.4s1-0.4,1.4,0l1.4,1.4c0.4,0.4,0.4,1,0,1.4
	C25.3,25.7,25,25.8,24.8,25.8z"/>
<path class="st0" d="M8,18H6c-0.6,0-1-0.4-1-1s0.4-1,1-1h2c0.6,0,1,0.4,1,1S8.6,18,8,18z"/>
<path class="st0" d="M28,18h-2c-0.6,0-1-0.4-1-1s0.4-1,1-1h2c0.6,0,1,0.4,1,1S28.6,18,28,18z"/>
<path class="st0" d="M9.2,25.8c-0.3,0-0.5-0.1-0.7-0.3c-0.4-0.4-0.4-1,0-1.4l1.4-1.4c0.4-0.4,1-0.4,1.4,0s0.4,1,0,1.4l-1.4,1.4
	C9.7,25.7,9.5,25.8,9.2,25.8z"/>
<path class="st0" d="M23.4,11.6c-0.3,0-0.5-0.1-0.7-0.3c-0.4-0.4-0.4-1,0-1.4l1.4-1.4c0.4-0.4,1-0.4,1.4,0s0.4,1,0,1.4l-1.4,1.4
	C23.9,11.5,23.6,11.6,23.4,11.6z"/>
</svg>
