<svg xmlns="http://www.w3.org/2000/svg" width="45" height="45" viewBox="0 0 45 45"><defs><style>.a{fill:#ff6262;}.b{fill:#fff;}</style></defs><g transform="translate(5879 1019)"><circle class="a" cx="22.5" cy="22.5" r="22.5" transform="translate(-5879 -1019)"/><g transform="translate(-5866.48 -1006.605)"><path class="b" d="M13.051,22.115A10.057,10.057,0,1,1,19.826,4.622l.338.309L16.847,8.248l-.307-.263a5.364,5.364,0,1,0-3.488,9.437,4.8,4.8,0,0,0,4.614-2.947H12.614V9.948l9.861.014.073.347a10.808,10.808,0,0,1-1.981,8.6A9.154,9.154,0,0,1,13.051,22.115Z" transform="translate(-2.992 -2)"/></g></g></svg>