<svg xmlns="http://www.w3.org/2000/svg" xmlns:xlink="http://www.w3.org/1999/xlink" width="17.458" height="17.458" viewBox="0 0 17.458 17.458"><defs><style>.a{fill:rgba(255,255,255,0.25);opacity:0;}.b{clip-path:url(#a);}.c{fill:none;stroke:#fff;stroke-linecap:round;stroke-linejoin:round;stroke-width:2px;}</style><clipPath id="a"><path class="a" d="M0,0H17.458V17.458H0Z" transform="translate(-6007 153)"/></clipPath></defs><g class="b" transform="translate(6007 -153)"><g transform="translate(-6002.927 155.91)"><path class="c" d="M4,9.565a3.4,3.4,0,0,1,2.328-.582c1.746,0,2.91,1.164,4.655,1.164a3.4,3.4,0,0,0,2.328-.582V2.582a3.4,3.4,0,0,1-2.328.582C9.237,3.164,8.073,2,6.328,2A3.4,3.4,0,0,0,4,2.582Z" transform="translate(-4 -2)"/><line class="c" y1="4.073" transform="translate(0 7.565)"/></g></g></svg>