<svg xmlns="http://www.w3.org/2000/svg" xmlns:xlink="http://www.w3.org/1999/xlink" width="30" height="30" viewBox="0 0 30 30"><defs><style>.a{fill:rgba(255,255,255,0.25);opacity:0;}.b{clip-path:url(#a);}.c{fill:none;stroke:#fff;stroke-width:2px;}</style><clipPath id="a"><path class="a" d="M0,0H30V30H0Z" transform="translate(-6056 -240)"/></clipPath></defs><g class="b" transform="translate(6056 240)"><g transform="translate(-5317.66 1216.591)"><path class="c" d="M3.954,1.976V3.954A1.975,1.975,0,0,1,1.979,5.93h0A1.977,1.977,0,0,1,0,3.954V1.976A1.977,1.977,0,0,1,1.979,0h0A1.975,1.975,0,0,1,3.954,1.976Z" transform="translate(-728.272 -1449.591)"/><path class="c" d="M3.954,1.976V3.954A1.975,1.975,0,0,1,1.978,5.93h0A1.977,1.977,0,0,1,0,3.954V1.976A1.977,1.977,0,0,1,1.978,0h0A1.975,1.975,0,0,1,3.954,1.976Z" transform="translate(-733.34 -1445.637)"/><path class="c" d="M6.531,8.706H4.353A4.353,4.353,0,0,1,0,4.353H0A4.353,4.353,0,0,1,4.353,0H6.531a4.353,4.353,0,0,1,4.353,4.353h0A4.353,4.353,0,0,1,6.531,8.706Z" transform="translate(-728.782 -1441.947)"/><path class="c" d="M3.954,1.976V3.954A1.975,1.975,0,0,1,1.978,5.93h0A1.977,1.977,0,0,1,0,3.954V1.976A1.977,1.977,0,0,1,1.978,0h0A1.975,1.975,0,0,1,3.954,1.976Z" transform="translate(-717.294 -1445.637)"/><path class="c" d="M3.954,1.976V3.954A1.977,1.977,0,0,1,1.976,5.93h0A1.975,1.975,0,0,1,0,3.954V1.976A1.975,1.975,0,0,1,1.976,0h0A1.977,1.977,0,0,1,3.954,1.976Z" transform="translate(-722.36 -1449.591)"/></g></g></svg>