<svg xmlns="http://www.w3.org/2000/svg" xmlns:xlink="http://www.w3.org/1999/xlink" width="30" height="30" viewBox="0 0 30 30"><defs><style>.a{fill:rgba(255,255,255,0.25);opacity:0;}.b{clip-path:url(#a);}.c{fill:#00ba74;stroke:#00ba74;stroke-linecap:round;stroke-linejoin:round;}</style><clipPath id="a"><path class="a" d="M0,0H30V30H0Z" transform="translate(-6242 -258)"/></clipPath></defs><g class="b" transform="translate(6242 258)"><path class="c" d="M10.966,7.23V4.242A2.242,2.242,0,0,0,8.725,2L6.082,8.725v8.219h8.082a1.494,1.494,0,0,0,1.494-1.27L16.69,8.949A1.494,1.494,0,0,0,15.2,7.23ZM3.494,16.944A1.494,1.494,0,0,1,2,15.449v-5.23A1.494,1.494,0,0,1,3.494,8.725C3.507,16.932,3.494,16.944,3.494,16.944Z" transform="translate(-6236.5 -252.5)"/></g></svg>