<svg xmlns="http://www.w3.org/2000/svg" width="30" height="30" viewBox="0 0 30 30"><defs><style>.a,.b{fill:none;}.b{stroke:#d6d7d7;stroke-linecap:round;stroke-linejoin:round;stroke-width:2px;}.c,.d{stroke:none;}.d{fill:#d6d7d7;}</style></defs><g transform="translate(1865 1601.769)"><g class="a" transform="translate(-1865 -1601.769)"><path class="c" d="M15,0A15,15,0,1,1,0,15,15,15,0,0,1,15,0Z"/><path class="d" d="M 15 1 C 11.26046943664551 1 7.744760513305664 2.456249237060547 5.100509643554688 5.100509643554688 C 2.456249237060547 7.744760513305664 1 11.26046943664551 1 15 C 1 18.73952865600586 2.456249237060547 22.25523948669434 5.100509643554688 24.89949035644531 C 7.744760513305664 27.54375076293945 11.26046943664551 29 15 29 C 18.73952865600586 29 22.25523948669434 27.54375076293945 24.89949035644531 24.89949035644531 C 27.54375076293945 22.25523948669434 29 18.73952865600586 29 15 C 29 11.26046943664551 27.54375076293945 7.744760513305664 24.89949035644531 5.100509643554688 C 22.25523948669434 2.456249237060547 18.73952865600586 1 15 1 M 15 0 C 23.28426933288574 0 30 6.715730667114258 30 15 C 30 23.28426933288574 23.28426933288574 30 15 30 C 6.715730667114258 30 0 23.28426933288574 0 15 C 0 6.715730667114258 6.715730667114258 0 15 0 Z"/></g><path class="b" d="M14.4,6,7.25,13.149,4,9.9" transform="translate(-1859.5 -1596.268)"/></g></svg>