<svg xmlns="http://www.w3.org/2000/svg" xmlns:xlink="http://www.w3.org/1999/xlink" width="30" height="30" viewBox="0 0 30 30"><defs><style>.a{fill:rgba(255,255,255,0.25);opacity:0;}.b{clip-path:url(#a);}.c{fill:none;stroke:#fff;stroke-linecap:round;stroke-linejoin:round;stroke-width:2px;}.d{fill:#fff;}.e{filter:url(#f);}.f{filter:url(#d);}.g{filter:url(#b);}</style><clipPath id="a"><path class="a" d="M0,0H30V30H0Z" transform="translate(-6282 -467)"/></clipPath><filter id="b" x="8.485" y="7.723" width="20.139" height="20.139" filterUnits="userSpaceOnUse"><feOffset dy="3" input="SourceAlpha"/><feGaussianBlur stdDeviation="3" result="c"/><feFlood flood-opacity="0.161"/><feComposite operator="in" in2="c"/><feComposite in="SourceGraphic"/></filter><filter id="d" x="4.921" y="7.723" width="20.139" height="20.139" filterUnits="userSpaceOnUse"><feOffset dy="3" input="SourceAlpha"/><feGaussianBlur stdDeviation="3" result="e"/><feFlood flood-opacity="0.161"/><feComposite operator="in" in2="e"/><feComposite in="SourceGraphic"/></filter><filter id="f" x="0.96" y="7.723" width="20.139" height="20.139" filterUnits="userSpaceOnUse"><feOffset dy="3" input="SourceAlpha"/><feGaussianBlur stdDeviation="3" result="g"/><feFlood flood-opacity="0.161"/><feComposite operator="in" in2="g"/><feComposite in="SourceGraphic"/></filter></defs><g class="b" transform="translate(6282 467)"><g transform="translate(-2347.272 1246.5)"><path class="c" d="M23.594,12.725a9.588,9.588,0,0,1-1.03,4.348,9.725,9.725,0,0,1-8.7,5.377,9.588,9.588,0,0,1-4.348-1.03l-5.75,1.03,1.4-5.377a9.588,9.588,0,0,1-1.03-4.348,9.725,9.725,0,0,1,5.377-8.7A9.588,9.588,0,0,1,13.869,3h.572a9.7,9.7,0,0,1,9.153,9.153Z" transform="translate(-3933.5 -1711.5)"/><g class="g" transform="matrix(1, 0, 0, 1, -3934.73, -1713.5)"><ellipse class="d" cx="1.069" cy="1.069" rx="1.069" ry="1.069" transform="translate(17.49 13.72)"/></g><g class="f" transform="matrix(1, 0, 0, 1, -3934.73, -1713.5)"><ellipse class="d" cx="1.069" cy="1.069" rx="1.069" ry="1.069" transform="translate(13.92 13.72)"/></g><g class="e" transform="matrix(1, 0, 0, 1, -3934.73, -1713.5)"><ellipse class="d" cx="1.069" cy="1.069" rx="1.069" ry="1.069" transform="translate(9.96 13.72)"/></g></g></g></svg>