<svg xmlns="http://www.w3.org/2000/svg" xmlns:xlink="http://www.w3.org/1999/xlink" width="20" height="20" viewBox="0 0 20 20"><defs><style>.a{fill:rgba(255,255,255,0.25);opacity:0;}.b{clip-path:url(#a);}.c{fill:#e88700;}.d{fill:#b26700;}.e{fill:#00a666;}</style><clipPath id="a"><path class="a" d="M 0 0 H 30 V 30 H 0 Z" transform="translate(-6183,-481)"/></clipPath></defs><g class="b" transform="matrix(1,0,0,1,6183,481)"><g transform="translate(-173.6,-1988.6) rotate(-19)"><g transform="translate(-6164,-519.1)"><path class="c" d="M 638.3 311.9 C 638.3 311.8 638.3 311.7 638.4 311.7 C 638.5 311.6 638.6 311.6 638.7 311.6 l 1.1 0.2 c 0.2 -1.4 0.2 -2.8 -0.5 -3.4 C 637.3 307 634.6 307 632.6 308.4 c -1.6 1.4 0.2 6.7 1.3 8.2 C 634.3 317.4 635.1 317.9 635.9 317.9 C 636.8 317.9 637.6 317.4 638 316.6 C 638.4 315.9 638.8 315.1 639.1 314.2 l -0.9 -0.2 C 638.1 314 638 314 637.9 313.9 C 637.9 313.8 637.8 313.7 637.9 313.6 h 0 C 637.9 313.5 637.9 313.4 638 313.4 C 638.1 313.3 638.2 313.3 638.3 313.3 l 1 0.2 c 0.1 -0.4 0.2 -0.7 0.3 -1.1 l -1.1 -0.2 C 638.3 312.2 638.3 312.1 638.3 311.9 Z" transform="translate(-638.5,-309.5)"/><path class="d" d="M 749.6 386.8 C 749.4 386.8 749.2 386.9 749.2 387.1 C 749.1 387.3 749.3 387.5 749.5 387.5 l 1.1 0.2 c 0.1 -0.2 0.1 -0.5 0.1 -0.7 Z" transform="translate(-749.4,-384.7)"/><path class="d" d="M 743.3 420.9 h 0 C 743.2 421 743.3 421.1 743.3 421.2 C 743.4 421.3 743.5 421.3 743.6 421.3 l 0.9 0.2 c 0.1 -0.2 0.2 -0.4 0.2 -0.7 l -1 -0.2 C 743.6 420.6 743.5 420.6 743.4 420.7 C 743.3 420.7 743.3 420.8 743.3 420.9 Z" transform="translate(-743.8,-416.7)"/></g><g transform="translate(-0.7,-2)"><rect x="2.2" y="-6.5" class="e" width="4.1" height="2" rx="1" transform="translate(-6160.3,-517.7) rotate(-90)"/><rect x="3.4" y="-5.9" class="e" width="3.2" height="1.6" rx="0.8" transform="matrix(-0.2,-1,1,-0.2,-6162.5,-517.5)"/><rect x="0.8" y="-6.7" class="e" width="3.2" height="1.6" rx="0.8" transform="matrix(0.2,-1,1,0.2,-6157.7,-517.8)"/></g></g></g></svg>