<svg xmlns="http://www.w3.org/2000/svg" xmlns:xlink="http://www.w3.org/1999/xlink" width="30" height="30" viewBox="0 0 30 30"><defs><style>.a{fill:rgba(255,255,255,0.25);opacity:0;}.b{clip-path:url(#a);}.c{fill:none;stroke:#00ba74;stroke-miterlimit:10;stroke-width:2px;}</style><clipPath id="a"><path class="a" d="M0,0H30V30H0Z" transform="translate(-6279 -616)"/></clipPath></defs><g class="b" transform="translate(6279 616)"><g transform="translate(-6273 -610)"><path class="c" d="M1072.416,444.4c5.684,5.684,11.2,4.5,12.385,3.393l.594-.594a1.639,1.639,0,0,0,0-2.375l-1.866-1.866a1.694,1.694,0,0,0-2.291,0l-.933,1.018a.526.526,0,0,1-.679.085,27.558,27.558,0,0,1-3.732-2.969,26,26,0,0,1-3.054-3.648.646.646,0,0,1,.085-.763l.933-1.018a1.694,1.694,0,0,0,0-2.29l-1.866-1.866a1.64,1.64,0,0,0-2.375,0l-.594.594C1067.75,433.375,1066.732,438.8,1072.416,444.4Z" transform="translate(-1068.03 -431)"/></g></g></svg>