<svg xmlns="http://www.w3.org/2000/svg" xmlns:xlink="http://www.w3.org/1999/xlink" width="30" height="30" viewBox="0 0 30 30"><defs><style>.a{fill:rgba(255,255,255,0.25);opacity:0;}.b{clip-path:url(#a);}.c{fill:none;stroke:#fff;stroke-linecap:round;stroke-linejoin:round;stroke-width:2px;}</style><clipPath id="a"><path class="a" d="M0,0H30V30H0Z" transform="translate(-6093 -743)"/></clipPath></defs><g class="b" transform="translate(6093 743)"><g transform="translate(-6141.211 -765.097)"><g transform="translate(54.211 26.124)"><path class="c" d="M54.211,29.72A9.021,9.021,0,0,0,56.9,32.079s-1.013-10.241,7.07-12.241c-1.989,7.087,2.025,9.32,4.533,5.652,2.579,4.1,1.039,7.21,1.039,7.21,1.25.18,2.3-1.185,2.3-1.185.055.113.841,9.482-8.959,9.482C57.93,41,54.211,36.871,54.211,29.72Z" transform="translate(-54.211 -19.838)"/><path class="c" d="M7.576,2.69,10.1,5.218a3.573,3.573,0,1,1-5.052,0Z" transform="translate(1.637 9.41)"/></g></g></g></svg>