<svg xmlns="http://www.w3.org/2000/svg" width="34.441" height="42.978" viewBox="0 0 34.441 42.978"><defs><style>.a{fill:#efc1b8;}.b{fill:#00ba74;}.c{fill:#f9c0b7;}.d{fill:none;}.e{fill:#fff;}.f{fill:#53b67a;}</style></defs><g transform="translate(-659.936 170.559)"><g transform="translate(687.669 -154.659)"><path class="a" d="M1000.047,36.269h-.362a.725.725,0,0,1-.725-.725h0a.725.725,0,0,1,.725-.725h.362a.725.725,0,0,1,.725.725h0A.725.725,0,0,1,1000.047,36.269Z" transform="translate(-998.054 -33.371)"/><path class="a" d="M1023.273,26.605v.362a.362.362,0,0,1-.362.362h0a.362.362,0,0,1-.362-.362v-.362a.362.362,0,0,1,.362-.362h0A.362.362,0,0,1,1023.273,26.605Z" transform="translate(-1019.65 -25.518)"/><path class="a" d="M1012.551,18.028v.362a.362.362,0,0,1-.362.362h0a.362.362,0,0,1-.362-.362v-.362a.362.362,0,0,1,.362-.362h0A.362.362,0,0,1,1012.551,18.028Z" transform="translate(-1009.833 -17.666)"/><path class="a" d="M999.685,18.028v.362a.362.362,0,0,1-.362.362h0a.362.362,0,0,1-.362-.362v-.362a.362.362,0,0,1,.362-.362h0A.362.362,0,0,1,999.685,18.028Z" transform="translate(-998.054 -17.666)"/><path class="a" d="M988.964,26.605v.362a.362.362,0,0,1-.362.362h0a.362.362,0,0,1-.362-.362v-.362a.362.362,0,0,1,.362-.362h0A.362.362,0,0,1,988.964,26.605Z" transform="translate(-988.239 -25.518)"/></g><g transform="translate(673.42 -158.106)"><g transform="translate(0 0)"><path class="b" d="M820.158-23.144h0a.593.593,0,0,0-.591.589.587.587,0,0,0,.171.419.591.591,0,0,0,.418.175h0a.586.586,0,0,0,.416-.171.588.588,0,0,0,.175-.417.585.585,0,0,0-.171-.419A.587.587,0,0,0,820.158-23.144Z" transform="translate(-819.564 23.144)"/><path class="b" d="M895.282-22.969a.586.586,0,0,0-.417-.175h0a.586.586,0,0,0-.416.171.587.587,0,0,0-.175.417.586.586,0,0,0,.171.419.587.587,0,0,0,.417.175h0a.587.587,0,0,0,.416-.171.586.586,0,0,0,.175-.417A.586.586,0,0,0,895.282-22.969Z" transform="translate(-887.96 23.144)"/></g><path class="b" d="M851.049-2.61l-1.994-.009a.471.471,0,0,0-.437.29.472.472,0,0,0,.1.514l.993.983,0,0,0,.9-.9.88a.329.329,0,0,0,.459.472l.769-.749.763.755a.329.329,0,0,0,.464-.468L850.372.08l0-.91,1-.973a.472.472,0,0,0,.108-.514A.471.471,0,0,0,851.049-2.61Z" transform="translate(-846.131 4.353)"/></g><circle class="c" cx="1.98" cy="1.98" r="1.98" transform="translate(668.95 -157.119)"/><circle class="c" cx="1.98" cy="1.98" r="1.98" transform="translate(681.887 -157.119)"/><rect class="c" width="1.462" height="5.362" rx="0.731" transform="translate(672.331 -167.42)"/><rect class="c" width="1.462" height="5.362" rx="0.731" transform="translate(680.582 -167.42)"/><path class="c" d="M707.51,36.3h0a.725.725,0,0,1,.725-.725h.362a.725.725,0,0,1,.725.725h0a.725.725,0,0,1-.725.725h-.362A.725.725,0,0,1,707.51,36.3Z" transform="translate(-43.555 -188.722)"/><path class="c" d="M697.151,27h0a.362.362,0,0,1,.362.362v.362a.362.362,0,0,1-.362.362h0a.362.362,0,0,1-.362-.362v-.362A.362.362,0,0,1,697.151,27Z" transform="translate(-33.74 -180.87)"/><path class="c" d="M707.872,18.422h0a.362.362,0,0,1,.362.362v.362a.362.362,0,0,1-.362.362h0a.362.362,0,0,1-.362-.362v-.362A.362.362,0,0,1,707.872,18.422Z" transform="translate(-43.555 -173.017)"/><path class="c" d="M720.738,18.422h0a.362.362,0,0,1,.362.362v.362a.362.362,0,0,1-.362.362h0a.362.362,0,0,1-.362-.362v-.362A.362.362,0,0,1,720.738,18.422Z" transform="translate(-55.334 -173.017)"/><path class="c" d="M731.46,27h0a.362.362,0,0,1,.362.362v.362a.362.362,0,0,1-.362.362h0a.362.362,0,0,1-.362-.362v-.362A.362.362,0,0,1,731.46,27Z" transform="translate(-65.151 -180.87)"/><path class="d" d="M1014.4,11.233a.712.712,0,0,0-.158.018.712.712,0,0,1,.158-.018Z" transform="translate(-324.379 -166.436)"/><path class="d" d="M1003.249,11.233h0a.71.71,0,0,1,.158.018A.71.71,0,0,0,1003.249,11.233Z" transform="translate(-314.312 -166.436)"/><path class="e" d="M988.963,19.115a.362.362,0,0,1-.725,0v-.362a.362.362,0,0,1,.725,0Zm.181-1.087a.362.362,0,0,1,.724,0v.362a.362.362,0,0,1-.724,0Zm1.087,2.536h-.362a.725.725,0,0,1,0-1.449h.362a.725.725,0,0,1,0,1.449Zm.724-2.174a.362.362,0,1,1-.724,0v-.362a.362.362,0,1,1,.724,0Zm.906.725a.362.362,0,1,1-.724,0v-.362a.362.362,0,0,1,.724,0Z" transform="translate(-300.569 -172.325)"/><path class="f" d="M1000.193,11.233a.722.722,0,0,0-.282.057.722.722,0,0,1,.282-.057Z" transform="translate(-311.256 -166.436)"/><path class="f" d="M994.672,16.753h0a.723.723,0,0,1,.057-.282A.723.723,0,0,0,994.672,16.753Z" transform="translate(-306.46 -171.231)"/><path class="f" d="M1008.6,12.97a.737.737,0,0,0-.11.1.757.757,0,0,0-.11-.1.757.757,0,0,1,.11.1A.737.737,0,0,1,1008.6,12.97Z" transform="translate(-319.006 -168.026)"/><path class="f" d="M1005.12,11.442a.718.718,0,0,1,.275.129A.718.718,0,0,0,1005.12,11.442Z" transform="translate(-316.025 -166.627)"/><path class="f" d="M1016.115,11.233h0a.722.722,0,0,1,.282.057A.722.722,0,0,0,1016.115,11.233Z" transform="translate(-326.092 -166.436)"/><path class="f" d="M1025.359,20.049a.812.812,0,0,0-.576-.239.8.8,0,0,0-.091.009.8.8,0,0,1,.091-.009A.812.812,0,0,1,1025.359,20.049Z" transform="translate(-333.944 -174.288)"/><path class="f" d="M1024.075,16.753a.723.723,0,0,0-.057-.282.723.723,0,0,1,.057.282Z" transform="translate(-333.327 -171.231)"/><path class="f" d="M987.443,19.819a.745.745,0,0,0-.667.23.813.813,0,0,1,.576-.239A.8.8,0,0,1,987.443,19.819Z" transform="translate(-299.231 -174.288)"/><path class="c" d="M1000.048,34.82h-.362a.725.725,0,0,0,0,1.449h.362a.725.725,0,0,0,0-1.449Z" transform="translate(-310.387 -188.03)"/><path class="c" d="M1022.91,26.243a.362.362,0,0,0-.362.362v.362a.362.362,0,0,0,.725,0v-.362A.362.362,0,0,0,1022.91,26.243Z" transform="translate(-331.981 -180.178)"/><path class="c" d="M1012.188,17.666a.362.362,0,0,0-.362.362v.362a.362.362,0,0,0,.725,0v-.362A.362.362,0,0,0,1012.188,17.666Z" transform="translate(-322.165 -172.325)"/><path class="c" d="M999.323,18.753a.362.362,0,0,0,.362-.362v-.362a.362.362,0,0,0-.724,0v.362A.362.362,0,0,0,999.323,18.753Z" transform="translate(-310.387 -172.325)"/><path class="c" d="M988.6,26.243a.362.362,0,0,0-.362.362v.362a.362.362,0,0,0,.725,0v-.362A.362.362,0,0,0,988.6,26.243Z" transform="translate(-300.569 -180.178)"/><path class="f" d="M961.97,115.288h0Z" transform="translate(-276.519 -261.701)"/><path class="b" d="M693.939-154.57h-1.688a1.682,1.682,0,0,0-.827-.679,1.6,1.6,0,0,0-1.4-.829,1.583,1.583,0,0,0-.543.1,1.583,1.583,0,0,0-.543-.1,1.563,1.563,0,0,0-.7.171,14.129,14.129,0,0,0-4.116-4.72v-7.15a2.785,2.785,0,0,0-2.782-2.782,2.785,2.785,0,0,0-2.782,2.782v4.875a10.935,10.935,0,0,0-2.777,0v-4.875A2.785,2.785,0,0,0,673-170.559a2.785,2.785,0,0,0-2.782,2.782v7.15a14.124,14.124,0,0,0-4.14,4.768,1.564,1.564,0,0,0-.67-.155,1.584,1.584,0,0,0-.544.1,1.583,1.583,0,0,0-.543-.1,1.6,1.6,0,0,0-1.4.83,1.682,1.682,0,0,0-.785.615h-1.756a.438.438,0,0,0-.438.438v23.308a3.247,3.247,0,0,0,3.243,3.243h27.955a3.247,3.247,0,0,0,3.243-3.243v-23.308A.437.437,0,0,0,693.939-154.57Zm-1.066.876-.782.5v-.468c0-.011,0-.021,0-.031Zm-30.612,0c0,.032-.012.062-.012.1v.4l-.782-.5Zm-1.45,4.078v-3.977l3.114,1.988Zm3.3.377h-3.078l3.078-1.965Zm2.92,0h-2.482V-151.6a.218.218,0,0,0-.03-.108c-.005-.01-.015-.015-.022-.024a.211.211,0,0,0-.049-.052l-1.764-1.126v-.684a.81.81,0,0,1,.279-.61h0a.81.81,0,0,1,.076-.066.816.816,0,0,1,.189-.091l.05-.016a.809.809,0,0,1,.216-.033.8.8,0,0,1,.091.009h0v-.009h0a.724.724,0,0,1,.029-.191c0-.015.009-.031.014-.046a.724.724,0,0,1,.08-.167h0a.727.727,0,0,1,.124-.136l.036-.029a.718.718,0,0,1,.159-.1.721.721,0,0,1,.136-.042.73.73,0,0,1,.146-.015.719.719,0,0,1,.543.25.72.72,0,0,1,.544-.25.712.712,0,0,1,.174.023l.042.013a.7.7,0,0,1,.127.054l.028.015a.733.733,0,0,1,.248.249h0a.716.716,0,0,1,.105.37v.009a.8.8,0,0,1,.091-.009.815.815,0,0,1,.815.815Zm18.584,4.878v.835a8.457,8.457,0,0,1-8.448,8.447,8.457,8.457,0,0,1-8.448-8.447v-.891a1.384,1.384,0,0,1-.743-1.214,1.4,1.4,0,0,1,1.4-1.4,1.4,1.4,0,0,1,1.4,1.4,1.384,1.384,0,0,1-.743,1.214v.891a7.143,7.143,0,0,0,7.135,7.134,7.143,7.143,0,0,0,7.135-7.134v-.835a1.384,1.384,0,0,1-.743-1.214,1.4,1.4,0,0,1,1.4-1.4,1.4,1.4,0,0,1,1.4,1.4A1.385,1.385,0,0,1,685.618-144.361Zm1.251-9.3v4.424h-19.4v-4.36a1.252,1.252,0,0,0-.927-1.206,13.272,13.272,0,0,1,4.359-5.238.438.438,0,0,0,.186-.358v-7.375A1.909,1.909,0,0,1,673-169.683a1.908,1.908,0,0,1,1.906,1.906v5.384a.437.437,0,0,0,.156.335.439.439,0,0,0,.357.1,10.075,10.075,0,0,1,3.5,0,.442.442,0,0,0,.357-.1.437.437,0,0,0,.156-.335v-5.384a1.908,1.908,0,0,1,1.906-1.906,1.909,1.909,0,0,1,1.907,1.906v7.375a.437.437,0,0,0,.186.358,13.27,13.27,0,0,1,4.333,5.185A1.252,1.252,0,0,0,686.869-153.663Zm2.923,2.069s0,.006,0,.01v2.345h-2.482v-4.424a.811.811,0,0,1,.139-.456.811.811,0,0,1,.1-.121.812.812,0,0,1,.576-.239.8.8,0,0,1,.091.009v-.009h0a.721.721,0,0,1,.057-.282.721.721,0,0,1,.146-.216c.016-.017.036-.029.054-.044a.718.718,0,0,1,.151-.1.726.726,0,0,1,.1-.042l.041-.013a.712.712,0,0,1,.181-.025.71.71,0,0,1,.158.018.711.711,0,0,1,.145.05.734.734,0,0,1,.13.079c.019.015.035.033.053.05a.74.74,0,0,1,.057.053.741.741,0,0,1,.057-.053.727.727,0,0,1,.053-.05.73.73,0,0,1,.13-.079.715.715,0,0,1,.145-.05.711.711,0,0,1,.158-.018.715.715,0,0,1,.214.036c.023.007.046.012.068.021a.727.727,0,0,1,.385.385.725.725,0,0,1,.057.282v.009a.8.8,0,0,1,.091-.009.815.815,0,0,1,.188.024c.018,0,.036.011.054.017a.822.822,0,0,1,.12.048l.053.029a.809.809,0,0,1,.107.076c.013.011.026.02.038.031a.819.819,0,0,1,.118.137.811.811,0,0,1,.138.453v.748l-1.764,1.126a.219.219,0,0,0-.1.185S689.791-151.6,689.791-151.594Zm.435,2.354v-1.945l3.046,1.945Zm3.275-.394-3.087-1.971,3.087-1.971Z"/></g></svg>