<svg xmlns="http://www.w3.org/2000/svg" xmlns:xlink="http://www.w3.org/1999/xlink" width="30" height="30" viewBox="0 0 30 30"><defs><style>.a{fill:rgba(255,255,255,0.25);opacity:0;}.b{clip-path:url(#a);}.c{fill:none;stroke:#fff;stroke-linecap:round;stroke-linejoin:round;stroke-width:2px;}</style><clipPath id="a"><path class="a" d="M0,0H30V30H0Z" transform="translate(-6245 -343)"/></clipPath></defs><g class="b" transform="translate(6245 343)"><g transform="translate(-6242 -340)"><path class="c" d="M3,6H21"/><path class="c" d="M19,6V20a2,2,0,0,1-2,2H7a2,2,0,0,1-2-2V6M8,6V4a2,2,0,0,1,2-2h4a2,2,0,0,1,2,2V6"/><line class="c" y2="6" transform="translate(10 11)"/><line class="c" y2="6" transform="translate(14 11)"/></g></g></svg>