<svg xmlns="http://www.w3.org/2000/svg" xmlns:xlink="http://www.w3.org/1999/xlink" width="30" height="30" viewBox="0 0 30 30"><defs><style>.a{fill:rgba(255,255,255,0.25);opacity:0;}.b{clip-path:url(#a);}.c{fill:none;stroke:#5d5d5d;stroke-linecap:round;stroke-linejoin:round;stroke-width:2px;}</style><clipPath id="a"><path class="a" d="M0,0H30V30H0Z" transform="translate(-6269 -257)"/></clipPath></defs><g class="b" transform="translate(6269 257)"><path class="c" d="M10.966,7.23V4.242A2.242,2.242,0,0,0,8.725,2L5.736,8.725v8.219h8.428a1.494,1.494,0,0,0,1.494-1.27L16.69,8.949A1.494,1.494,0,0,0,15.2,7.23Zm-5.23,9.713H3.494A1.494,1.494,0,0,1,2,15.449v-5.23A1.494,1.494,0,0,1,3.494,8.725H5.736" transform="translate(-6263.5 -251.5)"/></g></svg>